<svg width="390" height="479" viewBox="0 0 390 479" xmlns="http://www.w3.org/2000/svg" lang="en" xml:lang="en"><rect x="2" y="2" stroke-width="4" rx="6" width="386" height="475" stroke="rgba(65,132,228,0.4)" fill="#1c2128"/><g font-weight="600" font-size="110pt" font-family="Verdana,Geneva,DejaVu Sans,sans-serif" text-rendering="geometricPrecision"><text x="750" y="301" lengthAdjust="spacingAndGlyphs" textLength="1671" transform="scale(0.123)" fill="#539bf5">My GitHub Statistics</text><g transform="translate(0, 60)" fill="#adbac7"><g transform="translate(15, 0)"><g transform="scale(0.095)"><text x="0" y="132" textLength="1020" lengthAdjust="spacingAndGlyphs">Repositories</text><text x="2053" y="132" textLength="832" lengthAdjust="spacingAndGlyphs">Non-Forks</text><text x="3074" y="132" textLength="206" lengthAdjust="spacingAndGlyphs">All</text></g></g><g transform="translate(15, 21)"><path fill="#316dca" fill-rule="evenodd" d="M2 2.5A2.5 2.5 0 014.5 0h8.75a.75.75 0 01.75.75v12.5a.75.75 0 01-.75.75h-2.5a.75.75 0 110-1.5h1.75v-2h-8a1 1 0 00-.714 1.7.75.75 0 01-1.072 1.05A2.495 2.495 0 012 11.5v-9zm10.5-1V9h-8c-.356 0-.694.074-1 .208V2.5a1 1 0 011-1h8zM5 12.25v3.25a.25.25 0 00.4.2l1.45-1.087a.25.25 0 01.3 0L8.6 15.7a.25.25 0 00.4-.2v-3.25a.25.25 0 00-.25-.25h-3.5a.25.25 0 00-.25.25z"/><g transform="scale(0.095)"><text lengthAdjust="spacingAndGlyphs" textLength="1312" x="263" y="132">My Repositories</text><text lengthAdjust="spacingAndGlyphs" textLength="105" x="2053" y="132">9</text><text lengthAdjust="spacingAndGlyphs" textLength="210" x="3074" y="132">20</text></g></g><g transform="translate(15, 42)"><path fill="#316dca" fill-rule="evenodd" d="M8 .25a.75.75 0 01.673.418l1.882 3.815 4.21.612a.75.75 0 01.416 1.279l-3.046 2.97.719 4.192a.75.75 0 01-1.088.791L8 12.347l-3.766 1.98a.75.75 0 01-1.088-.79l.72-4.194L.818 6.374a.75.75 0 01.416-1.28l4.21-.611L7.327.668A.75.75 0 018 .25zm0 2.445L6.615 5.5a.75.75 0 01-.564.41l-3.097.45 2.24 2.184a.75.75 0 01.216.664l-.528 3.084 2.769-1.456a.75.75 0 01.698 0l2.77 1.456-.53-3.084a.75.75 0 01.216-.664l2.24-2.183-3.096-.45a.75.75 0 01-.564-.41L8 2.694v.001z"/><g transform="scale(0.095)"><text lengthAdjust="spacingAndGlyphs" textLength="874" x="263" y="132">Starred By</text><text lengthAdjust="spacingAndGlyphs" textLength="105" x="2053" y="132">4</text><text lengthAdjust="spacingAndGlyphs" textLength="105" x="3074" y="132">4</text></g></g></g><g transform="translate(0, 144)" fill="#adbac7"><g transform="translate(15, 0)"><g transform="scale(0.095)"><text x="0" y="132" textLength="1112" lengthAdjust="spacingAndGlyphs">Contributions</text><text x="2053" y="132" textLength="774" lengthAdjust="spacingAndGlyphs">Past Year</text><text x="3074" y="132" textLength="414" lengthAdjust="spacingAndGlyphs">Total</text></g></g><g transform="translate(15, 21)"><path fill="#316dca" fill-rule="evenodd" d="M10.5 7.75a2.5 2.5 0 11-5 0 2.5 2.5 0 015 0zm1.43.75a4.002 4.002 0 01-7.86 0H.75a.75.75 0 110-1.5h3.32a4.001 4.001 0 017.86 0h3.32a.75.75 0 110 1.5h-3.32z"/><g transform="scale(0.095)"><text lengthAdjust="spacingAndGlyphs" textLength="734" x="263" y="132">Commits</text><text lengthAdjust="spacingAndGlyphs" textLength="315" x="2053" y="132">227</text><text lengthAdjust="spacingAndGlyphs" textLength="315" x="3074" y="132">301</text></g></g><g transform="translate(15, 42)"><path fill="#316dca" d="M8 9.5a1.5 1.5 0 100-3 1.5 1.5 0 000 3z"/><path fill="#316dca" fill-rule="evenodd" d="M8 0a8 8 0 100 16A8 8 0 008 0zM1.5 8a6.5 6.5 0 1113 0 6.5 6.5 0 01-13 0z"/><g transform="scale(0.095)"><text lengthAdjust="spacingAndGlyphs" textLength="512" x="263" y="132">Issues</text><text lengthAdjust="spacingAndGlyphs" textLength="210" x="2053" y="132">34</text><text lengthAdjust="spacingAndGlyphs" textLength="210" x="3074" y="132">34</text></g></g><g transform="translate(15, 63)"><path fill="#316dca" fill-rule="evenodd" d="M7.177 3.073L9.573.677A.25.25 0 0110 .854v4.792a.25.25 0 01-.427.177L7.177 3.427a.25.25 0 010-.354zM3.75 2.5a.75.75 0 100 1.5.75.75 0 000-1.5zm-2.25.75a2.25 2.25 0 113 2.122v5.256a2.251 2.251 0 11-1.5 0V5.372A2.25 2.25 0 011.5 3.25zM11 2.5h-1V4h1a1 1 0 011 1v5.628a2.251 2.251 0 101.5 0V5A2.5 2.5 0 0011 2.5zm1 10.25a.75.75 0 111.5 0 .75.75 0 01-1.5 0zM3.75 12a.75.75 0 100 1.5.75.75 0 000-1.5z"/><g transform="scale(0.095)"><text lengthAdjust="spacingAndGlyphs" textLength="1113" x="263" y="132">Pull Requests</text><text lengthAdjust="spacingAndGlyphs" textLength="210" x="2053" y="132">38</text><text lengthAdjust="spacingAndGlyphs" textLength="210" x="3074" y="132">38</text></g></g><g transform="translate(15, 84)"><path fill="#316dca" fill-rule="evenodd" d="M1 2.5A2.5 2.5 0 013.5 0h8.75a.75.75 0 01.75.75v3.5a.75.75 0 01-1.5 0V1.5h-8a1 1 0 00-1 1v6.708A2.492 2.492 0 013.5 9h3.25a.75.75 0 010 1.5H3.5a1 1 0 100 2h5.75a.75.75 0 010 1.5H3.5A2.5 2.5 0 011 11.5v-9zm13.23 7.79a.75.75 0 001.06-1.06l-2.505-2.505a.75.75 0 00-1.06 0L9.22 9.229a.75.75 0 001.06 1.061l1.225-1.224v6.184a.75.75 0 001.5 0V9.066l1.224 1.224z"/><g transform="scale(0.095)"><text lengthAdjust="spacingAndGlyphs" textLength="1234" x="263" y="132">Contributed To</text><text lengthAdjust="spacingAndGlyphs" textLength="105" x="2053" y="132">9</text></g></g></g><g transform="translate(0, 270)" fill="#adbac7"><g transform="translate(15, 0)"><g transform="scale(0.095)"><text x="0" y="132" textLength="3652" lengthAdjust="spacingAndGlyphs">Language Distribution in Public Repositories</text></g></g><g transform="translate(210, 21)"><circle cx="81" cy="81" r="81" fill="#ffffff"/></g><g transform="translate(211, 22)"><g><path fill-rule="evenodd" fill="#3572A5" d="M 0.0,80.00000000000001 A 80 80 0 1 1 9.335062682684367 117.50288834129782 L 80,80 Z"/><path fill-rule="evenodd" fill="#3178c6" d="M 9.335062682684367,117.50288834129782 A 80 80 0 0 1 2.712163703011555 100.65406401970118 L 80,80 Z"/><path fill-rule="evenodd" fill="#00ADD8" d="M 2.712163703011555,100.65406401970118 A 80 80 0 0 1 0.521611426320149 89.12062222280679 L 80,80 Z"/><path fill-rule="evenodd" fill="#89e051" d="M 0.521611426320149,89.12062222280679 A 80 80 0 0 1 0.08910360829753472 83.77473679540626 L 80,80 Z"/><path fill-rule="evenodd" fill="#4F5D95" d="M 0.08910360829753472,83.77473679540626 A 80 80 0 0 1 0.0 80.00000000000003 L 80,80 Z"/><animateTransform attributeName="transform" attributeType="XML" type="rotate" from="0 80 80" to="360 80 80" dur="10s" repeatCount="indefinite"/></g></g><g transform="translate(15, 21)"><rect x="0.5" y="0.5" rx="2" width="15" height="15" fill="#3572A5" stroke-width="1" stroke="#ffffff"/><text transform="scale(0.095)" x="263" y="132" textLength="1254" lengthAdjust="spacingAndGlyphs">Python 92.23%</text></g><g transform="translate(15, 42)"><rect x="0.5" y="0.5" rx="2" width="15" height="15" fill="#3178c6" stroke-width="1" stroke="#ffffff"/><text transform="scale(0.095)" x="263" y="132" textLength="1462" lengthAdjust="spacingAndGlyphs">TypeScript 3.61%</text></g><g transform="translate(15, 63)"><rect x="0.5" y="0.5" rx="2" width="15" height="15" fill="#00ADD8" stroke-width="1" stroke="#ffffff"/><text transform="scale(0.095)" x="263" y="132" textLength="806" lengthAdjust="spacingAndGlyphs">Go 2.34%</text></g><g transform="translate(15, 84)"><rect x="0.5" y="0.5" rx="2" width="15" height="15" fill="#89e051" stroke-width="1" stroke="#ffffff"/><text transform="scale(0.095)" x="263" y="132" textLength="982" lengthAdjust="spacingAndGlyphs">Shell 1.07%</text></g><g transform="translate(15, 105)"><rect x="0.5" y="0.5" rx="2" width="15" height="15" fill="#4F5D95" stroke-width="1" stroke="#ffffff"/><text transform="scale(0.095)" x="263" y="132" textLength="900" lengthAdjust="spacingAndGlyphs">PHP 0.75%</text></g></g></g></svg>